<?xml version="1.0" encoding="utf-8"?>
<svg xmlns="http://www.w3.org/2000/svg">
<symbol id="apple" viewBox="0 0 512 512"><path d="m316.0127 146.6529q-14.0863 0-33.2432 6.5694-19.1568 6.5727-27.6086 6.5761-6.574 0-26.5756-5.8242t-34.0882-5.8242q-33.0547 0-54.7473 27.8018-21.6922 27.7882-21.6922 71.9282a169.5371 169.5371 0 0 0 7.1367 48.084 228.3646 228.3646 0 0 0 21.2231 48.8291q14.2734 24.9785 28.7357 37.4678 14.4606 12.4891 29.1108 12.4891 9.7656 0 25.4485-6.4805t27.5147-6.48q11.8317 0 29.0168 6.2 17.1843 6.2036 26.9515 6.2 12.3957 0 24.7906-9.3926t24.7913-28.3623a229.3648 229.3648 0 0 0 14.18-24.6026 159.3 159.3 0 0 0 9.4849-23.666q-17.0919-5.0653-30.4259-24.2265a73.5106 73.5106 0 0 1 -13.3352-43.0049 70.8158 70.8158 0 0 1 6.8556-30.1465q6.8547-14.7451 27.7018-32.3955-13.334-16.5292-28.1709-24.1377a71.3717 71.3717 0 0 0 -33.0552-7.6016zm-3.1927-72.4951q-33.6188 7.6905-48.1746 28.5469-14.5554 20.8461-14.93 49.39 14.6488-.7485 23.4771-4.6963a58.4929 58.4929 0 0 0 17.2779-12.3935 77.8942 77.8942 0 0 0 17.8426-26.4824q5.6346-14.2735 5.6345-26.291c0-1.251-.0632-2.502-.188-3.76a22.5252 22.5252 0 0 0 -.939-4.3135zm-56.82-65.5771c136.8563 0 247.8 110.94 247.8 247.8027 0 136.8555-110.9439 247.7959-247.8 247.7959s-247.8-110.9404-247.8-247.7959c0-136.8623 110.9437-247.8027 247.8-247.8027z" fill-rule="evenodd"/>
</symbol>
<symbol id="facebook" viewBox="0 0 512 512"><path d="m512 256c0-141.4-114.6-256-256-256s-256 114.6-256 256 114.6 256 256 256c1.5 0 3 0 4.5-.1v-199.2h-55v-64.1h55v-47.2c0-54.7 33.4-84.5 82.2-84.5 23.4 0 43.5 1.7 49.3 2.5v57.2h-33.6c-26.5 0-31.7 12.6-31.7 31.1v40.8h63.5l-8.3 64.1h-55.2v189.5c107-30.7 185.3-129.2 185.3-246.1z"/>
</symbol>
<symbol id="instagram" viewBox="0 0 512 512"><path d="m305 256c0 27.0625-21.9375 49-49 49s-49-21.9375-49-49 21.9375-49 49-49 49 21.9375 49 49zm0 0"/><path d="m370.59375 169.304688c-2.355469-6.382813-6.113281-12.160157-10.996094-16.902344-4.742187-4.882813-10.515625-8.640625-16.902344-10.996094-5.179687-2.011719-12.960937-4.40625-27.292968-5.058594-15.503906-.707031-20.152344-.859375-59.402344-.859375-39.253906 0-43.902344.148438-59.402344.855469-14.332031.65625-22.117187 3.050781-27.292968 5.0625-6.386719 2.355469-12.164063 6.113281-16.902344 10.996094-4.882813 4.742187-8.640625 10.515625-11 16.902344-2.011719 5.179687-4.40625 12.964843-5.058594 27.296874-.707031 15.5-.859375 20.148438-.859375 59.402344 0 39.25.152344 43.898438.859375 59.402344.652344 14.332031 3.046875 22.113281 5.058594 27.292969 2.359375 6.386719 6.113281 12.160156 10.996094 16.902343 4.742187 4.882813 10.515624 8.640626 16.902343 10.996094 5.179688 2.015625 12.964844 4.410156 27.296875 5.0625 15.5.707032 20.144532.855469 59.398438.855469 39.257812 0 43.90625-.148437 59.402344-.855469 14.332031-.652344 22.117187-3.046875 27.296874-5.0625 12.820313-4.945312 22.953126-15.078125 27.898438-27.898437 2.011719-5.179688 4.40625-12.960938 5.0625-27.292969.707031-15.503906.855469-20.152344.855469-59.402344 0-39.253906-.148438-43.902344-.855469-59.402344-.652344-14.332031-3.046875-22.117187-5.0625-27.296874zm-114.59375 162.179687c-41.691406 0-75.488281-33.792969-75.488281-75.484375s33.796875-75.484375 75.488281-75.484375c41.6875 0 75.484375 33.792969 75.484375 75.484375s-33.796875 75.484375-75.484375 75.484375zm78.46875-136.3125c-9.742188 0-17.640625-7.898437-17.640625-17.640625s7.898437-17.640625 17.640625-17.640625 17.640625 7.898437 17.640625 17.640625c-.003906 9.742188-7.898437 17.640625-17.640625 17.640625zm0 0"/><path d="m256 0c-141.363281 0-256 114.636719-256 256s114.636719 256 256 256 256-114.636719 256-256-114.636719-256-256-256zm146.113281 316.605469c-.710937 15.648437-3.199219 26.332031-6.832031 35.683593-7.636719 19.746094-23.246094 35.355469-42.992188 42.992188-9.347656 3.632812-20.035156 6.117188-35.679687 6.832031-15.675781.714844-20.683594.886719-60.605469.886719-39.925781 0-44.929687-.171875-60.609375-.886719-15.644531-.714843-26.332031-3.199219-35.679687-6.832031-9.8125-3.691406-18.695313-9.476562-26.039063-16.957031-7.476562-7.339844-13.261719-16.226563-16.953125-26.035157-3.632812-9.347656-6.121094-20.035156-6.832031-35.679687-.722656-15.679687-.890625-20.6875-.890625-60.609375s.167969-44.929688.886719-60.605469c.710937-15.648437 3.195312-26.332031 6.828125-35.683593 3.691406-9.808594 9.480468-18.695313 16.960937-26.035157 7.339844-7.480469 16.226563-13.265625 26.035157-16.957031 9.351562-3.632812 20.035156-6.117188 35.683593-6.832031 15.675781-.714844 20.683594-.886719 60.605469-.886719s44.929688.171875 60.605469.890625c15.648437.710937 26.332031 3.195313 35.683593 6.824219 9.808594 3.691406 18.695313 9.480468 26.039063 16.960937 7.476563 7.34375 13.265625 16.226563 16.953125 26.035157 3.636719 9.351562 6.121094 20.035156 6.835938 35.683593.714843 15.675781.882812 20.683594.882812 60.605469s-.167969 44.929688-.886719 60.605469zm0 0"/>
</symbol>
<symbol id="play" viewBox="0 0 512 512">
<g>
	<g>
		<g>
			<path d="M256,0C114.616,0,0,114.616,0,256s114.616,256,256,256c141.394,0,256-114.616,256-256S397.394,0,256,0z M256,460.8
				c-112.927,0-204.8-91.873-204.8-204.8S143.073,51.2,256,51.2S460.8,143.073,460.8,256S368.927,460.8,256,460.8z"/>
			<path d="M349.112,238.08l-124.15-71.68c-17.07-9.851-31.037-1.792-31.037,17.92v143.36c0,19.712,13.967,27.781,31.037,17.92
				l124.15-71.68C366.182,264.069,366.182,247.931,349.112,238.08z"/>
		</g>
	</g>
</g>
<g>
</g>
<g>
</g>
<g>
</g>
<g>
</g>
<g>
</g>
<g>
</g>
<g>
</g>
<g>
</g>
<g>
</g>
<g>
</g>
<g>
</g>
<g>
</g>
<g>
</g>
<g>
</g>
<g>
</g>

</symbol>
<symbol id="spotify" viewBox="0 0 98.372 98.372"><g><g id="Layer_1_1_"><path d="m49.186.002c-27.164 0-49.186 22.019-49.186 49.184 0 27.164 22.022 49.184 49.186 49.184s49.186-22.021 49.186-49.185-22.022-49.183-49.186-49.183zm18.93 72.545c-.796 0-1.339-.275-2.082-.729-7.129-4.313-16.019-6.58-25.449-6.58-5.264 0-10.561.677-15.515 1.707-.805.175-1.817.484-2.425.484-1.867 0-3.111-1.482-3.111-3.092 0-2.064 1.19-3.096 2.675-3.379 6.075-1.385 12.125-2.176 18.409-2.176 10.762 0 20.354 2.471 28.608 7.418 1.228.717 1.947 1.449 1.947 3.27.001 1.775-1.441 3.077-3.057 3.077zm5.359-13.018c-1.067 0-1.738-.432-2.465-.854-8-4.748-19.09-7.902-31.232-7.902-6.228 0-11.604.873-16.053 2.058-.959.265-1.496.549-2.394.549-2.114 0-3.842-1.726-3.842-3.856 0-2.091 1.015-3.529 3.059-4.105 5.529-1.52 11.177-2.689 19.394-2.689 12.875 0 25.33 3.206 35.121 9.066 1.642.939 2.246 2.137 2.246 3.887 0 2.126-1.696 3.846-3.834 3.846zm6.102-15.14c-1 0-1.595-.244-2.533-.758-8.901-5.338-22.719-8.277-36.079-8.277-6.67 0-13.443.679-19.648 2.362-.715.179-1.616.537-2.521.537-2.624 0-4.638-2.076-4.638-4.699 0-2.674 1.656-4.174 3.442-4.701 7.012-2.065 14.838-3.027 23.346-3.027 14.443 0 29.639 2.971 40.738 9.488 1.496.849 2.533 2.126 2.533 4.468-.002 2.68-2.156 4.607-4.64 4.607z"/></g></g><g/><g/><g/><g/><g/><g/><g/><g/><g/><g/><g/><g/><g/><g/><g/>
</symbol>
<symbol id="tiktok" viewBox="0 0 512 512"><path d="m256 0c-141.363 0-256 114.637-256 256s114.637 256 256 256 256-114.637 256-256-114.637-256-256-256zm128.43 195.873v34.663c-16.345.006-32.226-3.197-47.204-9.516-9.631-4.066-18.604-9.305-26.811-15.636l.246 106.693c-.103 24.025-9.608 46.598-26.811 63.601-14 13.84-31.74 22.641-50.968 25.49-4.518.669-9.116 1.012-13.766 1.012-20.583 0-40.124-6.668-56.109-18.97-3.008-2.316-5.885-4.827-8.624-7.532-18.644-18.427-28.258-43.401-26.639-69.674 1.235-19.999 9.242-39.072 22.59-54.021 17.66-19.782 42.366-30.762 68.782-30.762 4.65 0 9.248.349 13.766 1.018v12.816 35.652c-4.284-1.413-8.859-2.19-13.623-2.19-24.134 0-43.659 19.69-43.298 43.842.229 15.453 8.67 28.961 21.12 36.407 5.851 3.5 12.582 5.668 19.765 6.062 5.628.309 11.032-.475 16.036-2.127 17.243-5.696 29.682-21.892 29.682-40.994l.057-71.447v-130.44h47.736c.046 4.73.526 9.345 1.418 13.817 3.603 18.101 13.806 33.805 28.006 44.511 12.382 9.339 27.8 14.875 44.511 14.875.011 0 .149 0 .137-.011v12.861z"/>
</symbol>
<symbol id="twitter" viewBox="0 0 49.652 49.652"><g><g><path d="m24.826 0c-13.689 0-24.826 11.137-24.826 24.826 0 13.688 11.137 24.826 24.826 24.826 13.688 0 24.826-11.138 24.826-24.826 0-13.689-11.136-24.826-24.826-24.826zm11.075 19.144c.011.246.017.494.017.742 0 7.551-5.746 16.255-16.259 16.255-3.227 0-6.231-.943-8.759-2.565.447.053.902.08 1.363.08 2.678 0 5.141-.914 7.097-2.446-2.5-.046-4.611-1.698-5.338-3.969.348.066.707.103 1.074.103.521 0 1.027-.068 1.506-.199-2.614-.524-4.583-2.833-4.583-5.603 0-.024 0-.049.001-.072.77.427 1.651.685 2.587.714-1.532-1.023-2.541-2.773-2.541-4.755 0-1.048.281-2.03.773-2.874 2.817 3.458 7.029 5.732 11.777 5.972-.098-.419-.147-.854-.147-1.303 0-3.155 2.558-5.714 5.713-5.714 1.644 0 3.127.694 4.171 1.804 1.303-.256 2.523-.73 3.63-1.387-.43 1.335-1.333 2.454-2.516 3.162 1.157-.138 2.261-.444 3.282-.899-.762 1.144-1.731 2.151-2.848 2.954z"/></g></g>
</symbol></svg>